<?xml version="1.0" encoding="UTF-8"?>
<svg xmlns="http://www.w3.org/2000/svg" width="1024" height="1024" viewBox="0 0 1024 1024">
  <defs>
    <linearGradient id="bg" x1="0" y1="0" x2="0.35" y2="1">
      <stop offset="0" stop-color="#31405C"/>
      <stop offset="1" stop-color="#141922"/>
    </linearGradient>
  </defs>
  <rect x="0" y="0" width="1024" height="1024" rx="0" fill="url(#bg)"/>
    <rect x="116" y="380" width="72" height="120" rx="36" fill="#4CC2FF"/>
  <rect x="236" y="240" width="72" height="260" rx="36" fill="#4CC2FF"/>
  <rect x="356" y="320" width="72" height="180" rx="36" fill="#4CC2FF"/>
  <rect x="596" y="200" width="72" height="300" rx="36" fill="#4CC2FF"/>
  <rect x="716" y="300" width="72" height="200" rx="36" fill="#4CC2FF"/>
  <rect x="836" y="390" width="72" height="110" rx="36" fill="#4CC2FF"/>
  <rect x="116" y="524" width="72" height="90" rx="36" fill="#FFAE3D"/>
  <rect x="236" y="524" width="72" height="200" rx="36" fill="#FFAE3D"/>
  <rect x="356" y="524" width="72" height="300" rx="36" fill="#FFAE3D"/>
  <rect x="596" y="524" width="72" height="160" rx="36" fill="#FFAE3D"/>
  <rect x="716" y="524" width="72" height="260" rx="36" fill="#FFAE3D"/>
  <rect x="836" y="524" width="72" height="130" rx="36" fill="#FFAE3D"/>
  <rect x="476" y="192" width="72" height="640" rx="36" fill="#FF4A3D"/>
</svg>
